<mxfile host="app.diagrams.net" modified="2022-03-28T03:04:09.128Z" agent="5.0 (Macintosh; Intel Mac OS X 10_15_7) AppleWebKit/537.36 (KHTML, like Gecko) Chrome/99.0.4844.74 Safari/537.36" etag="wSLzSgwVm5RQmvykpK_p" version="17.2.4" type="github">
  <diagram id="N4w1C6s4cShQyOBgK4-D" name="第 1 页">
    <mxGraphModel dx="1826" dy="794" grid="0" gridSize="10" guides="1" tooltips="1" connect="1" arrows="1" fold="1" page="0" pageScale="1" pageWidth="827" pageHeight="1169" math="0" shadow="0">
      <root>
        <mxCell id="0" />
        <mxCell id="1" parent="0" />
        <mxCell id="bAhhYVPiR5WQBnHNS7rl-15" value="" style="rounded=0;whiteSpace=wrap;html=1;fontSize=16;fillColor=#f5f5f5;strokeColor=#666666;fontColor=#333333;" vertex="1" parent="1">
          <mxGeometry x="-167" y="116" width="586" height="335" as="geometry" />
        </mxCell>
        <mxCell id="bAhhYVPiR5WQBnHNS7rl-3" value="" style="edgeStyle=orthogonalEdgeStyle;rounded=0;orthogonalLoop=1;jettySize=auto;html=1;fontSize=16;" edge="1" parent="1" source="bAhhYVPiR5WQBnHNS7rl-1" target="bAhhYVPiR5WQBnHNS7rl-2">
          <mxGeometry relative="1" as="geometry" />
        </mxCell>
        <mxCell id="bAhhYVPiR5WQBnHNS7rl-7" value="生产" style="edgeLabel;html=1;align=center;verticalAlign=middle;resizable=0;points=[];fontSize=16;" vertex="1" connectable="0" parent="bAhhYVPiR5WQBnHNS7rl-3">
          <mxGeometry x="-0.475" y="3" relative="1" as="geometry">
            <mxPoint x="19" y="3" as="offset" />
          </mxGeometry>
        </mxCell>
        <mxCell id="bAhhYVPiR5WQBnHNS7rl-1" value="赶集职位上下架" style="rounded=1;whiteSpace=wrap;html=1;fontSize=16;fillColor=#d5e8d4;strokeColor=#82b366;gradientColor=#97d077;" vertex="1" parent="1">
          <mxGeometry x="-160" y="160" width="120" height="40" as="geometry" />
        </mxCell>
        <mxCell id="bAhhYVPiR5WQBnHNS7rl-2" value="ESB&lt;br&gt;107901" style="rounded=1;whiteSpace=wrap;html=1;fontSize=16;fillColor=#f8cecc;gradientColor=#ea6b66;strokeColor=#b85450;" vertex="1" parent="1">
          <mxGeometry x="40" y="160" width="120" height="40" as="geometry" />
        </mxCell>
        <mxCell id="bAhhYVPiR5WQBnHNS7rl-6" value="订阅" style="edgeStyle=orthogonalEdgeStyle;rounded=0;orthogonalLoop=1;jettySize=auto;html=1;entryX=1;entryY=0.5;entryDx=0;entryDy=0;fontSize=16;" edge="1" parent="1" source="bAhhYVPiR5WQBnHNS7rl-4" target="bAhhYVPiR5WQBnHNS7rl-2">
          <mxGeometry relative="1" as="geometry">
            <Array as="points">
              <mxPoint x="200" y="180" />
              <mxPoint x="200" y="180" />
            </Array>
            <mxPoint as="offset" />
          </mxGeometry>
        </mxCell>
        <mxCell id="bAhhYVPiR5WQBnHNS7rl-9" value="" style="edgeStyle=orthogonalEdgeStyle;rounded=0;orthogonalLoop=1;jettySize=auto;html=1;fontSize=16;" edge="1" parent="1" source="bAhhYVPiR5WQBnHNS7rl-4" target="bAhhYVPiR5WQBnHNS7rl-8">
          <mxGeometry relative="1" as="geometry" />
        </mxCell>
        <mxCell id="bAhhYVPiR5WQBnHNS7rl-4" value="魔方WMB" style="rounded=1;whiteSpace=wrap;html=1;fontSize=16;fillColor=#ffcd28;gradientColor=#ffa500;strokeColor=#d79b00;" vertex="1" parent="1">
          <mxGeometry x="260" y="160" width="120" height="40" as="geometry" />
        </mxCell>
        <mxCell id="bAhhYVPiR5WQBnHNS7rl-11" value="" style="edgeStyle=orthogonalEdgeStyle;rounded=0;orthogonalLoop=1;jettySize=auto;html=1;fontSize=16;" edge="1" parent="1" source="bAhhYVPiR5WQBnHNS7rl-8" target="bAhhYVPiR5WQBnHNS7rl-10">
          <mxGeometry relative="1" as="geometry" />
        </mxCell>
        <mxCell id="bAhhYVPiR5WQBnHNS7rl-8" value="过滤ESB" style="rounded=1;whiteSpace=wrap;html=1;fontSize=16;fillColor=#ffcd28;gradientColor=#ffa500;strokeColor=#d79b00;" vertex="1" parent="1">
          <mxGeometry x="260" y="240" width="120" height="40" as="geometry" />
        </mxCell>
        <mxCell id="bAhhYVPiR5WQBnHNS7rl-13" value="" style="edgeStyle=orthogonalEdgeStyle;rounded=0;orthogonalLoop=1;jettySize=auto;html=1;fontSize=16;" edge="1" parent="1" source="bAhhYVPiR5WQBnHNS7rl-10" target="bAhhYVPiR5WQBnHNS7rl-12">
          <mxGeometry relative="1" as="geometry" />
        </mxCell>
        <mxCell id="bAhhYVPiR5WQBnHNS7rl-10" value="更新魔方帖赶集上架状态" style="rounded=1;whiteSpace=wrap;html=1;fontSize=16;fillColor=#ffcd28;gradientColor=#ffa500;strokeColor=#d79b00;" vertex="1" parent="1">
          <mxGeometry x="260" y="320" width="120" height="40" as="geometry" />
        </mxCell>
        <mxCell id="bAhhYVPiR5WQBnHNS7rl-12" value="前端界面展示" style="rounded=1;whiteSpace=wrap;html=1;fontSize=16;fillColor=#ffcd28;gradientColor=#ffa500;strokeColor=#d79b00;" vertex="1" parent="1">
          <mxGeometry x="260" y="390" width="120" height="40" as="geometry" />
        </mxCell>
        <mxCell id="bAhhYVPiR5WQBnHNS7rl-14" value="赶集职位上下架消息监听" style="text;html=1;align=center;verticalAlign=middle;resizable=0;points=[];autosize=1;strokeColor=none;fillColor=none;fontSize=16;" vertex="1" parent="1">
          <mxGeometry x="-160" y="125" width="186" height="23" as="geometry" />
        </mxCell>
      </root>
    </mxGraphModel>
  </diagram>
</mxfile>
